<svg width="332" height="75" viewBox="0 0 332 75" fill="none" xmlns="http://www.w3.org/2000/svg">
<path d="M310.818 46.7847C307.818 38.2743 304.679 29.7742 301.335 20.3819C308.709 20.3988 312.991 23.7092 315.1 27.7487C320.998 39.6728 326.628 51.7303 330.891 64.1166C333.366 71.1915 327.419 75.3786 318.682 73.8754C304.025 71.3393 289.456 68.116 274.913 65.2312C274.058 64.9547 272.943 64.9245 272.486 64.3914C271.123 62.9051 270.02 61.1725 268.787 59.563C270.526 58.6392 272.353 57.0282 274.16 57.0068C279.883 57.2603 285.5 57.9755 291.248 58.5674C294.195 58.9147 297.134 59.1491 301.493 57.9163C298.239 55.3233 294.986 52.7303 291.602 50.2604C221.754 1.59226 122.122 -2.54293 42.8153 40.1274C32.6552 45.6498 23.4008 52.1254 13.6894 58.068C10.2273 60.1413 6.74835 61.989 3.28625 64.0623C2.50355 63.5157 1.67755 63.0102 0.808243 62.5457C1.62509 60.4429 1.70815 57.8278 3.26719 56.3503C8.99209 51.0455 14.8638 45.8431 21.3477 41.3891C87.0712 -4.35113 182.407 -13.0535 259.028 20.1361C273.686 26.4154 286.852 35.0747 300.634 42.6671C303.388 44.163 305.9 46.1308 308.671 47.8523C309.387 47.4964 310.102 47.1406 310.818 46.7847Z" fill="#F22E76"/>
</svg>
