<svg width="57" height="57" viewBox="0 0 57 57" fill="none" xmlns="http://www.w3.org/2000/svg">
<path d="M47.5 24.9375H42.75V23.1562H36.4167V33.8438H42.75V32.0625H47.5V35.625C47.5 36.5698 47.1664 37.476 46.5725 38.1441C45.9786 38.8122 45.1732 39.1875 44.3333 39.1875H34.8333C33.9935 39.1875 33.188 38.8122 32.5942 38.1441C32.0003 37.476 31.6667 36.5698 31.6667 35.625V21.375C31.6667 20.4302 32.0003 19.524 32.5942 18.8559C33.188 18.1878 33.9935 17.8125 34.8333 17.8125H44.3333C45.1732 17.8125 45.9786 18.1878 46.5725 18.8559C47.1664 19.524 47.5 20.4302 47.5 21.375M25.3333 24.9375H20.5833V23.1562H14.25V33.8438H20.5833V32.0625H25.3333V35.625C25.3333 36.5698 24.9997 37.476 24.4058 38.1441C23.812 38.8122 23.0065 39.1875 22.1667 39.1875H12.6667C11.8268 39.1875 11.0214 38.8122 10.4275 38.1441C9.83363 37.476 9.5 36.5698 9.5 35.625V21.375C9.5 20.4302 9.83363 19.524 10.4275 18.8559C11.0214 18.1878 11.8268 17.8125 12.6667 17.8125H22.1667C23.0065 17.8125 23.812 18.1878 24.4058 18.8559C24.9997 19.524 25.3333 20.4302 25.3333 21.375M50.6667 0H6.33333C2.81833 0 0 3.17062 0 7.125V49.875C0 51.7647 0.66726 53.5769 1.85499 54.9131C3.04272 56.2493 4.65363 57 6.33333 57H50.6667C52.3464 57 53.9573 56.2493 55.145 54.9131C56.3327 53.5769 57 51.7647 57 49.875V7.125C57 5.23533 56.3327 3.42306 55.145 2.08686C53.9573 0.750667 52.3464 0 50.6667 0Z" fill="#F22E76"/>
</svg>
