<svg width="65" height="56" viewBox="0 0 65 56" fill="none" xmlns="http://www.w3.org/2000/svg">
<path d="M43.3371 13.3328C43.3371 12.6438 43.055 11.9766 42.5471 11.4844L31.4984 0.765625C30.9905 0.273438 30.3021 0 29.5798 0H28.8914V14H43.3371V13.3328ZM64.4414 33.6875L53.6409 23.1438C52.5011 22.0391 50.5487 22.8156 50.5487 24.3797V31.5H43.3258V38.5H50.5487V45.6313C50.5487 47.1953 52.5011 47.9719 53.6409 46.8672L64.4414 36.3125C65.1862 35.5906 65.1862 34.4094 64.4414 33.6875ZM21.6685 36.75V33.25C21.6685 32.2875 22.4811 31.5 23.4743 31.5H43.3371V17.5H27.9885C26.4988 17.5 25.28 16.3188 25.28 14.875V0H2.70857C1.20757 0 0 1.17031 0 2.625V53.375C0 54.8297 1.20757 56 2.70857 56H40.6285C42.1295 56 43.3371 54.8297 43.3371 53.375V38.5H23.4743C22.4811 38.5 21.6685 37.7125 21.6685 36.75Z" fill="#F22E76"/>
</svg>
