<svg width="69" height="59" viewBox="0 0 69 59" fill="none" xmlns="http://www.w3.org/2000/svg">
<path d="M36.9669 59V42.1429H46.8248L34.5025 25.2857L22.1802 42.1429H32.038V59H19.7157V58.8595C19.3017 58.8876 18.9074 59 18.4835 59C13.5813 59 8.88 56.78 5.41368 52.8283C1.94736 48.8767 0 43.5171 0 37.9286C0 27.1175 7.17158 18.3069 16.3739 17.0988C17.1807 12.2905 19.432 7.95303 22.7406 4.83238C26.0492 1.71173 30.2083 0.00296694 34.5025 0C38.7972 0.0027402 42.957 1.7113 46.2664 4.83188C49.5758 7.95245 51.8281 12.29 52.636 17.0988C61.8383 18.3069 69 27.1175 69 37.9286C69 43.5171 67.0526 48.8767 63.5863 52.8283C60.12 56.78 55.4187 59 50.5165 59C50.1025 59 49.7033 58.8876 49.2843 58.8595V59H36.9669Z" fill="#F22E76"/>
</svg>
